<?xml version="1.0" encoding="utf-8"?>
<!-- Generator: Adobe Illustrator 19.2.1, SVG Export Plug-In . SVG Version: 6.00 Build 0)  -->
<svg version="1.1" id="Layer_1" xmlns="http://www.w3.org/2000/svg" xmlns:xlink="http://www.w3.org/1999/xlink" x="0px" y="0px"
	 viewBox="0 0 333 416.2" style="enable-background:new 0 0 333 416.2;" xml:space="preserve">
<style type="text/css">
	.st0{fill:#0084B4;}
</style>
<g>
	<path class="st0" d="M307,85c-4,9-7,28-1,37l21,6c7,2,5,4,0,6l-10,2c18,14,8,52-4,58c6,2,9,4,1,6l-12,3c-2,6-4,15-4,24
		c0,5,1,9,4,13l21,5c7,2,4,5-1,6l-176,37c0,0-122-31-130-35c-12-6-23-44-5-59l-5-1c-5-1-7-4,0-6l21-6c6-9,3-27-1-37l-11-2
		c-5-1-7-4-1-6l6-1c-17-9-21-63,7-63l178-27l114,32c7,2,5,4,0,5L307,85z M183,230l-7-1l-28,6l-2,44l149-33c-8-11-6-29-3-41L183,230z
		 M137,276l1-38L21,199c-17,2-9,41-1,45C26,248,113,270,137,276z M36,146c4,13,6,31-2,42l148,32l-1-44C132,166,90,158,36,146z
		 M192,218l-2-38l117-39c17,2,10,41,2,45C303,189,215,212,192,218z M297,87l-145,30l-1,44l149-33C291,117,293,99,297,87z M142,159
		l1-39L26,81c-17,2-10,42-2,46C31,130,118,152,142,159z"/>
</g>
</svg>
