<?xml version="1.0" encoding="utf-8"?>
<!-- Generator: Adobe Illustrator 19.2.1, SVG Export Plug-In . SVG Version: 6.00 Build 0)  -->
<svg version="1.1" id="Layer_1" xmlns="http://www.w3.org/2000/svg" xmlns:xlink="http://www.w3.org/1999/xlink" x="0px" y="0px"
	 viewBox="0 0 100 125" style="enable-background:new 0 0 100 125;" xml:space="preserve">
<style type="text/css">
	.st0{fill:#0084B4;}
</style>
<path class="st0" d="M73.8,31.7l10.7,20.4c0,0-1.2,2.6-3.9,5.6c-2,2.2-4.6,4-4.6,4L56.2,39.8c0,0-0.8-0.9-2.2-1
	c-1-0.1-2.8,0.6-2.8,0.6L40,45.5c0,0-2.6,1.8-4.5-0.8c-1.8-2.5,1.4-4.8,1.4-4.8S47,31.6,53.6,28.6c3.3-1.5,6.3-1,8.4,0.1
	c2.1,1.1,5.4,3.5,7.1,4.1C71.1,33.6,73.8,31.7,73.8,31.7z"/>
<path class="st0" d="M94.4,48.3L82.5,26.2c-0.3-0.6-1-0.8-1.6-0.5l-4.6,2.4c-0.6,0.3-0.8,1-0.5,1.6l11.8,22.1c0.3,0.6,1,0.8,1.6,0.5
	l4.6-2.4C94.4,49.6,94.7,48.9,94.4,48.3z M89.8,48.6c-0.9,0-1.7-0.8-1.7-1.7s0.7-1.7,1.7-1.7c0.9,0,1.7,0.8,1.7,1.7
	C91.5,47.8,90.7,48.6,89.8,48.6z"/>
<path class="st0" d="M26.3,60.5c-0.1,0-1.8-1-4.8-3.7c-1.8-1.6-3.7-4.4-3.8-4.5c-0.3-0.4-0.3-0.8-0.1-1.2l10.6-20
	c0.3-0.5,0.9-0.8,1.5-0.5l0,0c0,0,0.6,0.2,1.9,0.5c1.3,0.3,2.4,0,4.1-0.6c0.3-0.1,0.7-0.2,1.1-0.3c1-0.3,2-0.9,3.2-1.5
	c1.3-0.7,2.7-1.5,4.2-1.9c3.3-0.9,5.3,1.6,5.4,1.7l-1.8,1.5c0-0.1-1.2-1.3-3-0.9c-1.2,0.3-2.4,1-3.6,1.6c-1.2,0.7-2.4,1.3-3.7,1.7
	c-0.4,0.1-0.7,0.2-1.1,0.3c-1.9,0.5-3.3,1-5.2,0.6c-0.5-0.1-0.9-0.2-1.3-0.3l-9.8,18.5c0.6,0.9,1.9,2.5,3,3.5
	c2.8,2.5,4.4,3.4,4.4,3.4L26.3,60.5z"/>
<path class="st0" d="M59,78.5c-1.5,0-2.5-0.9-2.6-1l0.8-0.9l0.8-0.9c0.3,0.3,1.5,1,3-0.8c1.6-1.8,0.4-3.7,0.4-3.7l2-1.3
	c0.8,1.2,1.6,4-0.5,6.6c-1.1,1.2-2.2,1.9-3.5,2C59.2,78.5,59.1,78.5,59,78.5z"/>
<path class="st0" d="M66.1,73.6c-1.1,0-2.1-0.4-2.6-0.7c-1.1-0.5-2.9-2.4-3.2-2.7c-0.4-0.5-0.4-1.2,0.1-1.7c0.5-0.4,1.2-0.4,1.7,0.1
	c0.8,0.9,2,2,2.5,2.2c1.1,0.5,2.1,0.8,3.3-0.4c1.5-1.5,0.2-3.4,0-3.7L61,59.3c-0.5-0.5-0.4-1.2,0.1-1.7c0.5-0.5,1.2-0.4,1.7,0.1
	l6.9,7.4c0,0,0.1,0.1,0.1,0.1c1,1.3,2.3,4.5-0.2,6.9C68.3,73.3,67.2,73.6,66.1,73.6z"/>
<path class="st0" d="M73.4,69.6c-1.7,0-3.1-0.8-3.8-1.5l-3.7-3.6l1.7-1.7l3.7,3.6c0.2,0.2,1.8,1.6,4.1,0.2c0.9-0.6,1.5-1.2,1.6-1.8
	c0.1-0.6-0.2-1.1-0.2-1.1l2-1.3c0.1,0.1,0.9,1.3,0.5,2.9c-0.3,1.3-1.2,2.5-2.7,3.4C75.5,69.4,74.4,69.6,73.4,69.6z"/>
<path class="st0" d="M32.3,65.3c-1.2,1.2-3.2,1.2-4.4,0l0,0c-1.2-1.2-1.2-3.2,0-4.4l1.5-1.5c1.2-1.2,3.2-1.2,4.4,0l0,0
	c1.2,1.2,1.2,3.2,0,4.4L32.3,65.3z"/>
<path class="st0" d="M38.3,70.3c-1.2,1.2-3.2,1.2-4.4,0l0,0c-1.2-1.2-1.2-3.2,0-4.4l4.8-4.8c1.2-1.2,3.2-1.2,4.4,0l0,0
	c1.2,1.2,1.2,3.2,0,4.4L38.3,70.3z"/>
<path class="st0" d="M45.3,75c-1.2,1.2-3.2,1.2-4.4,0l0,0c-1.2-1.2-1.2-3.2,0-4.4l6.2-6.2c1.2-1.2,3.2-1.2,4.4,0l0,0
	c1.2,1.2,1.2,3.2,0,4.4L45.3,75z"/>
<path class="st0" d="M52.4,79c-1.2,1.2-3.2,1.2-4.4,0l0,0c-1.2-1.2-1.2-3.2,0-4.4l3.2-3.2c1.2-1.2,3.2-1.2,4.4,0l0,0
	c1.2,1.2,1.2,3.2,0,4.4L52.4,79z"/>
<circle class="st0" cx="11.1" cy="47.2" r="1.7"/>
<g>
	<path class="st0" d="M19.2,27.4c0.2,0,0.4,0,0.6,0.1l2.9,1.6c0.6,0.3,0.8,1,0.5,1.6L13,50.1c-0.2,0.4-0.6,0.6-1.1,0.6
		c-0.2,0-0.4,0-0.6-0.1L8.4,49c-0.6-0.3-0.8-1-0.5-1.6L18.2,28C18.4,27.6,18.8,27.4,19.2,27.4 M19.2,25c-1.3,0-2.5,0.7-3.2,1.9l0,0
		l0,0L5.8,46.2C5.4,47.1,5.3,48,5.6,49c0.3,0.9,0.9,1.7,1.7,2.1l2.9,1.6l0,0l0,0c0.5,0.3,1.1,0.4,1.7,0.4c1.3,0,2.5-0.7,3.2-1.9l0,0
		l0,0l10.2-19.4c0.9-1.7,0.3-3.9-1.4-4.8L21,25.4l0,0l0,0C20.4,25.1,19.8,25,19.2,25L19.2,25z"/>
</g>
<path class="st0" d="M62.6,72c-0.3,0-0.6-0.1-0.9-0.4l-6.9-7.4c-0.5-0.5-0.4-1.2,0.1-1.7c0.5-0.5,1.2-0.4,1.7,0.1l6.9,7.4
	c0.5,0.5,0.4,1.2-0.1,1.7C63.2,71.9,62.9,72,62.6,72z"/>
</svg>
