<?xml version="1.0" encoding="utf-8"?>
<!-- Generator: Adobe Illustrator 19.2.1, SVG Export Plug-In . SVG Version: 6.00 Build 0)  -->
<svg version="1.1" id="Layer_1" xmlns="http://www.w3.org/2000/svg" xmlns:xlink="http://www.w3.org/1999/xlink" x="0px" y="0px"
	 viewBox="0 0 100 125" style="enable-background:new 0 0 100 125;" xml:space="preserve">
<style type="text/css">
	.st0{fill:#0084B4;}
</style>
<path class="st0" d="M87.5,95V17.5L75,5H10v77.5L22.5,95H87.5z M17.5,12.5H70v65H17.5V12.5z M75,82.5V15.6l5,5v66.9H25.6l-5-5H75z"
	/>
<path class="st0" d="M60,45c0-9.6-7.9-17.5-17.5-17.5S25,35.4,25,45s7.9,17.5,17.5,17.5c3.9,0,7.5-1.3,10.5-3.5l10.3,10.3l3.5-3.5
	L56.5,55.5C58.7,52.5,60,48.9,60,45z M42.5,57.5C35.6,57.5,30,51.9,30,45s5.6-12.5,12.5-12.5S55,38.1,55,45S49.4,57.5,42.5,57.5z"/>
</svg>
